P2
64 64
255
80	50	10	54	52	32	54	52	10	50	53	53	10	56	48	9	53	48	9	49	48	9	53	52	9	53	50	9	51	50	9	53	52	9	53	50	9	49	48	9	53	48	9	53	51	9	53	51	9	49	48	9	53	54	9	52	56	9	57	9	53	51	9	53	
49	9	57	9	53	49	9	53	48	9	57	9	53	51	9	53	50	9	57	9	53	51	9	53	48	9	57	9	53	49	9	53	48	9	57	9	53	51	9	53	50	9	57	9	53	51	9	53	48	9	57	9	53	49	9	53	48	9	57	9	53	51	9	52	
56	9	57	9	53	51	9	53	49	9	57	9	53	51	9	53	49	9	57	9	52	57	9	52	56	9	57	9	52	57	9	53	52	9	53	50	9	57	9	52	57	9	53	52	9	53	49	9	57	9	52	57	9	53	52	9	53	49	9	57	9	10	52	57	
9	53	52	9	53	49	9	57	9	52	57	9	53	52	9	53	48	9	57	9	52	57	9	53	52	9	53	48	9	57	9	52	57	9	53	52	9	52	57	9	57	9	52	57	9	53	52	9	52	57	9	57	9	52	57	9	53	52	9	52	57	9	57	9	
52	57	9	53	52	9	52	56	9	57	9	52	57	9	53	52	9	52	56	9	57	9	52	57	9	53	52	9	52	56	9	57	9	52	57	9	53	52	9	52	56	9	57	9	52	57	9	53	52	9	52	56	9	57	9	52	57	9	53	52	9	52	56	9	
57	9	52	57	9	53	51	9	53	55	9	57	9	52	57	9	53	51	9	53	54	9	57	9	52	57	9	53	51	9	53	54	9	57	9	52	57	9	53	51	9	53	54	9	57	9	10	52	57	9	53	51	9	53	54	9	57	9	52	57	9	53	51	9	
53	53	9	57	9	52	57	9	53	51	9	53	52	9	57	9	52	57	9	53	51	9	53	52	9	57	9	52	57	9	53	51	9	53	52	9	57	9	52	57	9	53	51	9	53	52	9	57	9	52	57	9	53	51	9	53	51	9	57	9	52	57	9	53	
51	9	53	51	9	57	9	52	57	9	53	51	9	53	51	9	57	9	52	57	9	53	51	9	53	50	9	57	9	52	57	9	53	51	9	53	50	9	57	9	52	57	9	53	51	9	53	51	9	57	9	52	57	9	53	51	9	53	50	9	57	9	52	57	
9	53	51	9	53	49	9	57	9	52	57	9	53	51	9	53	49	9	57	9	52	57	9	53	51	9	53	49	9	57	9	10	52	57	9	53	51	9	53	49	9	57	9	52	57	9	53	51	9	53	49	9	57	9	52	57	9	53	51	9	53	48	9	57	
9	52	57	9	53	51	9	53	48	9	57	9	52	57	9	53	51	9	53	49	9	57	9	52	57	9	53	51	9	52	57	9	57	9	52	57	9	53	51	9	53	48	9	57	9	52	57	9	53	51	9	53	48	9	57	9	52	57	9	53	51	9	52	57	
9	57	9	52	57	9	53	51	9	53	48	9	57	9	52	57	9	53	51	9	52	57	9	57	9	52	57	9	53	51	9	52	57	9	57	9	52	57	9	53	51	9	52	57	9	57	9	52	57	9	53	51	9	52	57	9	57	9	52	57	9	53	51	9	
52	57	9	57	9	52	57	9	53	51	9	52	57	9	57	9	10	49	48	9	52	57	9	53	51	9	52	57	9	57	9	52	57	9	53	51	9	52	57	9	57	9	52	57	9	53	51	9	52	57	9	57	9	52	57	9	53	51	9	52	57	9	57	9	
52	57	9	53	51	9	53	48	9	57	9	52	57	9	53	51	9	53	49	9	57	9	52	57	9	53	51	9	53	48	9	57	9	52	57	9	53	51	9	53	48	9	57	9	52	57	9	53	51	9	53	48	9	57	9	52	57	9	53	51	9	53	48	9	
57	9	52	57	9	53	51	9	53	48	9	57	9	52	57	9	53	51	9	52	57	9	57	9	52	57	9	53	51	9	53	48	9	57	9	52	57	9	53	52	9	53	52	9	57	9	52	57	9	53	52	9	53	51	9	57	9	52	57	9	53	52	9	53	
51	9	10	57	9	52	57	9	53	52	9	53	51	9	57	9	52	57	9	53	52	9	53	50	9	57	9	52	57	9	53	52	9	53	49	9	57	9	52	57	9	53	52	9	53	49	9	57	9	52	57	9	53	52	9	53	48	9	57	9	52	57	9	53	
52	9	53	48	9	57	9	52	57	9	53	52	9	52	57	9	57	9	52	57	9	53	52	9	53	48	9	57	9	52	57	9	53	52	9	52	57	9	57	9	52	57	9	53	52	9	52	57	9	57	9	52	57	9	53	52	9	52	56	9	57	9	52	57	
9	53	52	9	52	56	9	57	9	52	57	9	53	52	9	52	56	9	57	9	52	57	9	53	52	9	52	56	9	57	9	52	57	9	53	51	9	53	55	9	57	9	52	57	9	53	51	9	53	55	9	10	57	9	52	57	9	53	51	9	53	55	9	57	
9	52	57	9	53	51	9	53	54	9	57	9	52	57	9	53	51	9	53	53	9	57	9	52	57	9	53	51	9	53	53	9	57	9	52	57	9	53	51	9	53	53	9	57	9	52	57	9	53	51	9	53	53	9	57	9	52	57	9	53	51	9	53	53	
9	57	9	52	57	9	53	51	9	53	53	9	57	9	52	57	9	53	51	9	53	53	9	57	9	52	57	9	53	51	9	53	52	9	57	9	52	57	9	53	51	9	53	52	9	57	9	52	57	9	53	51	9	53	52	9	57	9	52	57	9	53	51	9	
53	51	9	57	9	52	57	9	53	51	9	53	51	9	57	9	52	57	9	53	51	9	53	51	9	57	9	52	57	9	53	51	9	53	50	9	10	57	9	52	57	9	53	51	9	53	50	9	57	9	52	57	9	53	51	9	53	50	9	57	9	52	57	9	
53	51	9	53	50	9	57	9	52	57	9	53	51	9	53	50	9	57	9	52	57	9	53	51	9	53	50	9	57	9	52	57	9	53	51	9	53	49	9	57	9	52	57	9	53	51	9	53	49	9	57	9	52	57	9	53	51	9	53	49	9	57	9	52	
57	9	53	51	9	53	49	9	57	9	52	57	9	53	51	9	53	48	9	57	9	52	57	9	53	51	9	53	48	9	57	9	52	57	9	53	51	9	53	48	9	57	9	52	57	9	53	51	9	53	48	9	57	9	52	57	9	53	51	9	53	48	9	57	
9	52	57	9	53	51	9	53	48	9	57	9	52	57	9	53	51	9	53	48	9	10	57	9	49	48	9	52	57	9	53	51	9	53	48	9	57	9	52	57	9	53	51	9	53	48	9	57	9	52	57	9	53	51	9	53	49	9	57	9	52	57	9	53	
51	9	53	49	9	57	9	52	57	9	53	51	9	53	49	9	57	9	52	57	9	53	51	9	53	49	9	57	9	52	57	9	53	51	9	53	50	9	57	9	52	57	9	53	51	9	53	50	9	57	9	52	57	9	53	51	9	53	50	9	57	9	52	57	
9	53	51	9	53	49	9	57	9	52	57	9	53	51	9	53	49	9	57	9	52	57	9	53	51	9	53	49	9	57	9	52	57	9	53	51	9	53	49	9	57	9	52	57	9	53	52	9	53	54	9	57	9	52	57	9	53	52	9	53	53	9	57	9	
52	57	9	53	52	9	10	53	52	9	57	9	52	57	9	53	52	9	53	52	9	57	9	52	57	9	53	52	9	53	51	9	57	9	52	57	9	53	52	9	53	51	9	57	9	52	57	9	53	52	9	53	50	9	57	9	52	57	9	53	52	9	53	50	
9	57	9	52	57	9	53	52	9	53	49	9	57	9	52	57	9	53	52	9	53	49	9	57	9	52	57	9	53	52	9	53	49	9	57	9	52	57	9	53	52	9	53	49	9	57	9	52	57	9	53	52	9	53	48	9	57	9	52	57	9	53	52	9	
53	48	9	57	9	52	57	9	53	52	9	53	48	9	57	9	52	57	9	53	52	9	52	57	9	57	9	52	57	9	53	52	9	52	57	9	57	9	52	57	9	53	52	9	52	56	9	57	9	52	57	9	53	52	9	10	52	56	9	57	9	52	57	9	
53	52	9	52	56	9	57	9	52	57	9	53	52	9	52	56	9	57	9	52	57	9	53	51	9	53	55	9	57	9	52	57	9	53	51	9	53	54	9	57	9	52	57	9	53	51	9	53	54	9	57	9	52	57	9	53	51	9	53	54	9	57	9	52	
57	9	53	51	9	53	54	9	57	9	52	57	9	53	51	9	53	54	9	57	9	52	57	9	53	51	9	53	54	9	57	9	52	57	9	53	51	9	53	55	9	57	9	52	57	9	53	51	9	53	54	9	57	9	52	57	9	53	51	9	53	54	9	57	
9	52	57	9	53	51	9	53	53	9	57	9	52	57	9	53	51	9	53	53	9	57	9	52	57	9	53	51	9	53	52	9	57	9	52	57	9	53	51	9	10	53	51	9	57	9	52	57	9	53	51	9	53	51	9	57	9	52	57	9	53	51	9	53	
51	9	57	9	52	57	9	53	51	9	53	51	9	57	9	52	57	9	53	51	9	53	51	9	57	9	52	57	9	53	51	9	53	51	9	57	9	52	57	9	53	51	9	53	50	9	57	9	52	57	9	53	51	9	53	50	9	57	9	52	57	9	53	51	
9	53	50	9	57	9	52	57	9	53	51	9	53	49	9	57	9	52	57	9	53	51	9	53	50	9	57	9	52	57	9	53	51	9	53	50	9	57	9	52	57	9	53	51	9	53	49	9	57	9	52	57	9	53	51	9	53	49	9	57	9	52	57	9	
53	51	9	53	49	9	57	9	52	57	9	53	51	9	53	49	9	57	9	52	57	9	53	51	9	10	53	49	9	57	9	49	48	9	52	57	9	53	51	9	53	50	9	57	9	52	57	9	53	51	9	53	50	9	57	9	52	57	9	53	51	9	53	50	
9	57	9	52	57	9	53	51	9	53	50	9	57	9	52	57	9	53	51	9	53	50	9	57	9	52	57	9	53	51	9	53	50	9	57	9	52	57	9	53	51	9	53	50	9	57	9	52	57	9	53	51	9	53	50	9	57	9	52	57	9	53	51	9	
53	50	9	57	9	52	57	9	53	51	9	53	50	9	57	9	52	57	9	53	51	9	53	50	9	57	9	52	57	9	53	51	9	53	50	9	57	9	52	57	9	53	51	9	53	51	9	57	9	52	57	9	53	52	9	53	55	9	57	9	52	57	9	53	
52	9	53	54	9	57	9	52	57	9	10	53	52	9	53	54	9	57	9	52	57	9	53	52	9	53	53	9	57	9	52	57	9	53	52	9	53	53	9	57	9	52	57	9	53	52	9	53	52	9	57	9	52	57	9	53	52	9	53	52	9	57	9	52	
57	9	53	52	9	53	51	9	57	9	52	57	9	53	52	9	53	51	9	57	9	52	57	9	53	52	9	53	50	9	57	9	52	57	9	53	52	9	53	50	9	57	9	52	57	9	53	52	9	53	50	9	57	9	52	57	9	53	52	9	53	50	9	57	
9	52	57	9	53	52	9	53	49	9	57	9	52	57	9	53	52	9	53	49	9	57	9	52	57	9	53	52	9	53	48	9	57	9	52	57	9	53	52	9	53	48	9	57	9	52	57	9	53	52	9	53	48	9	57	9	52	57	9	10	53	52	9	53	
48	9	57	9	52	57	9	53	52	9	53	48	9	57	9	52	57	9	53	52	9	52	57	9	57	9	52	57	9	53	52	9	52	57	9	57	9	52	57	9	53	52	9	52	56	9	57	9	52	57	9	53	52	9	52	56	9	57	9	52	57	9	53	52	
9	52	56	9	57	9	52	57	9	53	52	9	52	56	9	57	9	52	57	9	53	51	9	53	55	9	57	9	52	57	9	53	52	9	52	56	9	57	9	52	57	9	53	52	9	52	56	9	57	9	52	57	9	53	51	9	53	55	9	57	9	52	57	9	
53	51	9	53	55	9	57	9	52	57	9	53	51	9	53	54	9	57	9	52	57	9	53	51	9	53	54	9	57	9	52	57	9	53	51	9	53	53	9	57	9	52	57	9	10	53	51	9	53	53	9	57	9	52	57	9	53	51	9	53	53	9	57	9	
52	57	9	53	51	9	53	53	9	57	9	52	57	9	53	51	9	53	52	9	57	9	52	57	9	53	51	9	53	52	9	57	9	52	57	9	53	51	9	53	52	9	57	9	52	57	9	53	51	9	53	51	9	57	9	52	57	9	53	51	9	53	51	9	
57	9	52	57	9	53	51	9	53	51	9	57	9	52	57	9	53	51	9	53	51	9	57	9	52	57	9	53	51	9	53	51	9	57	9	52	57	9	53	51	9	53	51	9	57	9	52	57	9	53	51	9	53	51	9	57	9	52	57	9	53	51	9	53	
51	9	57	9	52	57	9	53	51	9	53	50	9	57	9	52	57	9	53	51	9	53	51	9	57	9	52	57	9	10	53	51	9	53	51	9	57	9	49	48	9	52	57	9	53	51	9	53	51	9	57	9	52	57	9	53	51	9	53	51	9	57	9	52	
57	9	53	51	9	53	51	9	57	9	52	57	9	53	51	9	53	51	9	57	9	52	57	9	53	51	9	53	52	9	57	9	52	57	9	53	51	9	53	51	9	57	9	52	57	9	53	51	9	53	52	9	57	9	52	57	9	53	51	9	53	52	9	57	
9	52	57	9	53	51	9	53	52	9	57	9	52	57	9	53	51	9	53	52	9	57	9	52	57	9	53	51	9	53	52	9	57	9	52	57	9	53	51	9	53	52	9	57	9	52	57	9	53	51	9	53	52	9	57	9	52	57	9	53	53	9	52	56	
9	57	9	52	57	9	53	53	9	52	56	9	57	9	10	52	57	9	53	52	9	53	55	9	57	9	52	57	9	53	52	9	53	55	9	57	9	52	57	9	53	52	9	53	54	9	57	9	52	57	9	53	52	9	53	54	9	57	9	52	57	9	53	52	
9	53	53	9	57	9	52	57	9	53	52	9	53	52	9	57	9	52	57	9	53	52	9	53	52	9	57	9	52	57	9	53	52	9	53	51	9	57	9	52	57	9	53	52	9	53	51	9	57	9	52	57	9	53	52	9	53	51	9	57	9	52	57	9	
53	52	9	53	51	9	57	9	52	57	9	53	52	9	53	51	9	57	9	52	57	9	53	52	9	53	51	9	57	9	52	57	9	53	52	9	53	50	9	57	9	52	57	9	53	52	9	53	50	9	57	9	52	57	9	53	52	9	53	49	9	57	9	10	
52	57	9	53	52	9	53	49	9	57	9	52	57	9	53	52	9	53	49	9	57	9	52	57	9	53	52	9	53	49	9	57	9	52	57	9	53	52	9	53	48	9	57	9	52	57	9	53	52	9	53	48	9	57	9	52	57	9	53	52	9	53	48	9	
57	9	52	57	9	53	52	9	52	57	9	57	9	52	57	9	53	52	9	52	57	9	57	9	52	57	9	53	52	9	52	57	9	57	9	52	57	9	53	52	9	52	57	9	57	9	52	57	9	53	52	9	52	57	9	57	9	52	57	9	53	52	9	52	
56	9	57	9	52	57	9	53	52	9	52	56	9	57	9	52	57	9	53	52	9	52	56	9	57	9	52	57	9	53	51	9	53	55	9	57	9	52	57	9	53	51	9	53	55	9	57	9	10	52	57	9	53	51	9	53	55	9	57	9	52	57	9	53	
51	9	53	54	9	57	9	52	57	9	53	51	9	53	54	9	57	9	52	57	9	53	51	9	53	54	9	57	9	52	57	9	53	51	9	53	54	9	57	9	52	57	9	53	51	9	53	53	9	57	9	52	57	9	53	51	9	53	53	9	57	9	52	57	
9	53	51	9	53	53	9	57	9	52	57	9	53	51	9	53	53	9	57	9	52	57	9	53	51	9	53	53	9	57	9	52	57	9	53	51	9	53	52	9	57	9	52	57	9	53	51	9	53	53	9	57	9	52	57	9	53	51	9	53	52	9	57	9	
52	57	9	53	51	9	53	53	9	57	9	52	57	9	53	51	9	53	52	9	57	9	52	57	9	53	51	9	53	52	9	57	9	10	52	57	9	53	51	9	53	52	9	57	9	49	48	9	52	57	9	53	51	9	53	52	9	57	9	52	57	9	53	51	
9	53	52	9	57	9	52	57	9	53	51	9	53	52	9	57	9	52	57	9	53	51	9	53	53	9	57	9	52	57	9	53	51	9	53	53	9	57	9	52	57	9	53	51	9	53	53	9	57	9	52	57	9	53	51	9	53	54	9	57	9	52	57	9	
53	51	9	53	53	9	57	9	52	57	9	53	51	9	53	53	9	57	9	52	57	9	53	51	9	53	53	9	57	9	52	57	9	53	51	9	53	53	9	57	9	52	57	9	53	51	9	53	53	9	57	9	52	57	9	53	51	9	53	54	9	57	9	52	
57	9	53	53	9	53	48	9	57	9	52	57	9	53	53	9	52	57	9	10	57	9	52	57	9	53	53	9	52	57	9	57	9	52	57	9	53	53	9	52	56	9	57	9	52	57	9	53	52	9	53	55	9	57	9	52	57	9	53	52	9	53	54	9	
57	9	52	57	9	53	52	9	53	55	9	57	9	52	57	9	53	52	9	53	54	9	57	9	52	57	9	53	52	9	53	53	9	57	9	52	57	9	53	52	9	53	54	9	57	9	52	57	9	53	52	9	53	53	9	57	9	52	57	9	53	52	9	53	
53	9	57	9	52	57	9	53	52	9	53	52	9	57	9	52	57	9	53	52	9	53	52	9	57	9	52	57	9	53	52	9	53	52	9	57	9	52	57	9	53	52	9	53	52	9	57	9	52	57	9	53	52	9	53	52	9	57	9	52	57	9	53	52	
9	53	51	9	10	57	9	52	57	9	53	52	9	53	51	9	57	9	52	57	9	53	52	9	53	50	9	57	9	52	57	9	53	52	9	53	50	9	57	9	52	57	9	53	52	9	53	49	9	57	9	52	57	9	53	52	9	53	49	9	57	9	52	57	
9	53	52	9	53	49	9	57	9	52	57	9	53	52	9	53	49	9	57	9	52	57	9	53	52	9	53	48	9	57	9	52	57	9	53	52	9	53	48	9	57	9	52	57	9	53	52	9	53	48	9	57	9	52	57	9	53	52	9	53	48	9	57	9	
52	57	9	53	52	9	52	57	9	57	9	52	57	9	53	52	9	52	57	9	57	9	52	57	9	53	52	9	53	48	9	57	9	52	57	9	53	52	9	52	57	9	57	9	52	57	9	53	52	9	52	57	9	10	57	9	52	57	9	53	52	9	52	56	
